<svg width="50" height="50" viewBox="0 0 50 50" fill="none" xmlns="http://www.w3.org/2000/svg">
<g clip-path="url(#clip0_47_342)">
<path d="M43.1521 14.85L42.6396 16.0292C42.5595 16.2212 42.4244 16.3852 42.2512 16.5006C42.0781 16.6159 41.8747 16.6775 41.6667 16.6775C41.4586 16.6775 41.2552 16.6159 41.0821 16.5006C40.909 16.3852 40.7738 16.2212 40.6938 16.0292L40.1813 14.85C39.2802 12.764 37.63 11.0915 35.5563 10.1625L33.975 9.45624C33.7832 9.368 33.6207 9.2266 33.5067 9.0488C33.3928 8.87101 33.3323 8.66428 33.3323 8.45312C33.3323 8.24196 33.3928 8.03523 33.5067 7.85743C33.6207 7.67964 33.7832 7.53824 33.975 7.44999L35.4688 6.78541C37.5946 5.82995 39.273 4.09558 40.1583 1.93958L40.6875 0.666661C40.7649 0.469481 40.8999 0.300198 41.075 0.180879C41.25 0.0615608 41.4569 -0.0022583 41.6688 -0.0022583C41.8806 -0.0022583 42.0875 0.0615608 42.2625 0.180879C42.4376 0.300198 42.5726 0.469481 42.65 0.666661L43.1771 1.93749C44.0614 4.0939 45.7391 5.82902 47.8646 6.78541L49.3604 7.45208C49.5517 7.54058 49.7136 7.68196 49.8271 7.85952C49.9406 8.03709 50.0009 8.24342 50.0009 8.45416C50.0009 8.6649 49.9406 8.87123 49.8271 9.0488C49.7136 9.22636 49.5517 9.36774 49.3604 9.45624L47.7771 10.1604C45.7038 11.0903 44.0543 12.7636 43.1542 14.85M18.75 4.16666C22.7973 4.16604 26.7064 5.63813 29.748 8.3082C32.7895 10.9783 34.7556 14.6638 35.2792 18.6771L39.9667 26.05C40.275 26.5354 40.2125 27.2583 39.4979 27.5667L35.4167 29.3125V35.4167C35.4167 36.5217 34.9777 37.5815 34.1963 38.3629C33.4149 39.1443 32.3551 39.5833 31.25 39.5833H27.0854L27.0833 45.8333H8.33334V38.1375C8.33334 35.6792 7.42501 33.3521 5.74167 31.2521C3.77866 28.8011 2.54801 25.8454 2.19151 22.7255C1.835 19.6056 2.36714 16.4485 3.72662 13.6178C5.0861 10.7872 7.2176 8.39818 9.87557 6.72606C12.5335 5.05394 15.6098 4.16674 18.75 4.16666ZM18.75 8.33333C16.395 8.33323 14.0878 8.99842 12.0943 10.2523C10.1008 11.5061 8.50205 13.2976 7.48225 15.4204C6.46244 17.5432 6.06306 19.9109 6.33011 22.2508C6.59716 24.5906 7.51977 26.8074 8.99167 28.6458C11.2708 31.4875 12.5 34.7229 12.5 38.1375V41.6667H22.9167L22.9208 35.4167H31.25V26.5667L34.4792 25.1833L31.2646 20.1312L31.1458 19.2104C30.7519 16.2017 29.2769 13.439 26.9961 11.4377C24.7153 9.43631 21.7844 8.33293 18.75 8.33333ZM40.6042 35.4021L44.0708 37.7146C46.5856 33.9517 47.9244 29.5258 47.9167 25C47.9153 23.5764 47.7896 22.1875 47.5396 20.8333L43.4917 21.875C43.6625 22.893 43.7486 23.9347 43.75 25C43.7563 28.7026 42.6612 32.3234 40.6042 35.4021Z" fill="#F8FAFA"/>
</g>
<defs>
<clipPath id="clip0_47_342">
<rect width="50" height="50" fill="white"/>
</clipPath>
</defs>
</svg>
