<svg width="50" height="50" viewBox="0 0 50 50" fill="none" xmlns="http://www.w3.org/2000/svg">
<g clip-path="url(#clip0_47_714)">
<path d="M27.3362 24.0248C27.9777 24.278 28.6024 24.5566 29.2101 24.8605C29.8179 25.1643 30.4088 25.5104 30.9828 25.8987C30.6114 26.3039 30.2737 26.7259 29.9698 27.1649C29.6659 27.6038 29.3874 28.0765 29.1342 28.583C27.8342 27.7389 26.4499 27.0973 24.9811 26.6584C23.5124 26.2195 22.0014 26 20.4483 26C18.9626 26 17.5277 26.1941 16.1433 26.5824C14.759 26.9707 13.4675 27.511 12.2689 28.2031C11.0702 28.8953 9.98132 29.7394 9.00216 30.7355C8.02299 31.7315 7.17888 32.8288 6.46983 34.0275C5.76078 35.2261 5.2121 36.5176 4.82381 37.9019C4.43552 39.2863 4.24138 40.7213 4.24138 42.2069H1C1 40.181 1.29544 38.2311 1.88631 36.3572C2.47719 34.4833 3.32974 32.7529 4.44397 31.166C5.55819 29.579 6.875 28.1694 8.3944 26.937C9.91379 25.7046 11.6358 24.7338 13.5603 24.0248C11.6527 22.7755 10.167 21.2055 9.10345 19.3147C8.03987 17.4239 7.49964 15.3305 7.48276 13.0345C7.48276 11.245 7.8204 9.5652 8.49569 7.99515C9.17098 6.42511 10.0911 5.04921 11.2559 3.86746C12.4208 2.68571 13.7967 1.75719 15.3836 1.0819C16.9705 0.406613 18.6588 0.0689697 20.4483 0.0689697C22.2378 0.0689697 23.9176 0.406613 25.4876 1.0819C27.0576 1.75719 28.4335 2.67727 29.6153 3.84214C30.7971 5.00701 31.7256 6.38291 32.4009 7.96983C33.0761 9.55676 33.4138 11.245 33.4138 13.0345C33.4138 14.1487 33.2787 15.2376 33.0086 16.3012C32.7385 17.3648 32.3333 18.3693 31.7931 19.3147C31.2529 20.2601 30.6198 21.1295 29.8939 21.923C29.1679 22.7164 28.3154 23.417 27.3362 24.0248ZM10.7241 13.0345C10.7241 14.3851 10.9774 15.6428 11.4838 16.8077C11.9903 17.9725 12.6825 19.0023 13.5603 19.8971C14.4382 20.7919 15.468 21.4925 16.6498 21.9989C17.8315 22.5054 19.0977 22.7586 20.4483 22.7586C21.782 22.7586 23.0397 22.5054 24.2214 21.9989C25.4032 21.4925 26.433 20.8003 27.3109 19.9224C28.1888 19.0445 28.8894 18.0147 29.4127 16.833C29.9361 15.6512 30.1893 14.3851 30.1724 13.0345C30.1724 11.7008 29.9192 10.4431 29.4127 9.26132C28.9062 8.07957 28.2141 7.04975 27.3362 6.17188C26.4583 5.29401 25.4201 4.59339 24.2214 4.07005C23.0228 3.5467 21.7651 3.29347 20.4483 3.31035C19.0977 3.31035 17.84 3.56358 16.6751 4.07005C15.5102 4.57651 14.4804 5.26868 13.5857 6.14656C12.6909 7.02443 11.9903 8.06268 11.4838 9.26132C10.9774 10.46 10.7241 11.7177 10.7241 13.0345ZM48 34.1035C48 34.9813 47.8649 35.8339 47.5948 36.6611C47.3247 37.4883 46.9195 38.2565 46.3793 38.9655V51.931L39.8966 48.6897L33.4138 51.931V38.9655C32.8904 38.2565 32.4937 37.4883 32.2236 36.6611C31.9535 35.8339 31.81 34.9813 31.7931 34.1035C31.7931 32.9892 32.0041 31.9425 32.4262 30.9634C32.8482 29.9842 33.4222 29.1316 34.1482 28.4057C34.8741 27.6798 35.7351 27.0973 36.7311 26.6584C37.7272 26.2195 38.7823 26 39.8966 26C41.0108 26 42.0575 26.211 43.0366 26.6331C44.0158 27.0551 44.8684 27.6376 45.5943 28.3804C46.3202 29.1232 46.9027 29.9842 47.3416 30.9634C47.7805 31.9425 48 32.9892 48 34.1035ZM39.8966 29.2414C39.2213 29.2414 38.5882 29.368 37.9973 29.6212C37.4064 29.8745 36.8915 30.2206 36.4526 30.6595C36.0136 31.0984 35.6676 31.6133 35.4143 32.2042C35.1611 32.7951 35.0345 33.4282 35.0345 34.1035C35.0345 34.7787 35.1611 35.4118 35.4143 36.0027C35.6676 36.5936 36.0136 37.1085 36.4526 37.5474C36.8915 37.9864 37.4064 38.3324 37.9973 38.5857C38.5882 38.8389 39.2213 38.9655 39.8966 38.9655C40.5718 38.9655 41.2049 38.8389 41.7958 38.5857C42.3867 38.3324 42.9016 37.9864 43.3405 37.5474C43.7795 37.1085 44.1255 36.5936 44.3788 36.0027C44.632 35.4118 44.7586 34.7787 44.7586 34.1035C44.7586 33.4282 44.632 32.7951 44.3788 32.2042C44.1255 31.6133 43.7795 31.0984 43.3405 30.6595C42.9016 30.2206 42.3867 29.8745 41.7958 29.6212C41.2049 29.368 40.5718 29.2414 39.8966 29.2414ZM43.1379 46.6891V41.5232C42.125 41.979 41.0445 42.2069 39.8966 42.2069C38.7486 42.2069 37.6681 41.979 36.6552 41.5232V46.6891C37.1954 46.419 37.7356 46.1573 38.2759 45.9041C38.8161 45.6509 39.3563 45.3723 39.8966 45.0684C40.4368 45.3554 40.977 45.6255 41.5172 45.8788C42.0575 46.132 42.5977 46.4021 43.1379 46.6891Z" fill="white"/>
</g>
<defs>
<clipPath id="clip0_47_714">
<rect width="50" height="50" fill="white"/>
</clipPath>
</defs>
</svg>
