<svg width="50" height="50" viewBox="0 0 50 50" fill="none" xmlns="http://www.w3.org/2000/svg">
<path d="M47.2647 27.2019C47.4715 30.7432 45.8405 34.1474 42.923 36.2265L44.6918 39.6308C45.2202 40.6589 45.2891 41.8698 44.8297 42.9436C44.3932 44.0174 43.4973 44.8627 42.3946 45.2283L40.5798 45.7995C39.824 46.0517 39.0085 46.0663 38.2441 45.8415C37.4796 45.6167 36.8033 45.1633 36.307 44.5429L31.4368 38.8311C29.3923 38.4884 27.4626 37.6202 25.8316 36.3179C24.683 36.6606 23.5344 36.8434 22.3858 36.8434C20.3642 36.8434 18.3427 36.2265 16.6427 35.0385C15.4252 35.404 14.1847 35.564 12.9212 35.5411C11.1064 35.564 9.31455 35.1984 7.63758 34.513C6.02259 33.7978 4.6426 32.645 3.65542 31.1864C2.66824 29.7279 2.11373 28.0224 2.05532 26.2652C1.87154 24.6202 2.14721 22.9524 2.85935 21.4444C2.19315 19.7309 2.12424 17.8574 2.69854 16.1211C3.54852 13.9506 5.15657 12.1457 7.15516 11.0033C8.48755 7.14215 12.232 4.56042 16.3441 4.83459C20.0196 1.40752 25.6478 1.04197 29.7369 3.98925C30.7017 3.73793 31.7125 3.60085 32.7233 3.60085C35.8475 3.5323 38.8109 4.90313 40.7636 7.34777C45.4499 8.55867 48.8039 12.7168 48.9877 17.5604C49.1025 20.0965 48.4134 22.5868 47.012 24.7116C47.1728 25.5341 47.2647 26.3566 47.2647 27.2019ZM35.7786 23.9805C37.088 24.1404 38.1218 25.1228 38.1218 26.4251C38.1218 27.0311 37.8797 27.6122 37.4489 28.0407C37.0181 28.4691 36.4338 28.7098 35.8246 28.7098H34.3773C33.6422 30.7661 32.3557 32.571 30.6558 33.9418C31.2301 34.1474 31.8274 34.2617 32.4247 34.4216C44.2094 34.2617 42.8311 27.1105 42.8311 26.9963C42.8015 26.219 42.6181 25.4552 42.2914 24.7485C41.9648 24.0417 41.5012 23.406 40.9272 22.8776C40.3533 22.3493 39.6802 21.9386 38.9466 21.6692C38.2129 21.3997 37.433 21.2768 36.6516 21.3074C36.0423 21.3074 35.458 21.0667 35.0272 20.6382C34.5964 20.2097 34.3543 19.6286 34.3543 19.0227C34.3543 18.4167 34.5964 17.8356 35.0272 17.4071C35.458 16.9787 36.0423 16.7379 36.6516 16.7379C39.4771 16.8065 42.1879 17.8574 44.3013 19.7081C44.4162 19.0455 44.4851 18.3601 44.4851 17.6747C44.3473 14.8416 43.0608 12.3741 37.8921 11.8944C35.0205 5.1316 27.7843 8.87853 27.7843 10.9805C27.7153 11.5059 28.2667 12.6255 28.3586 12.694C28.9678 12.694 29.5521 12.9347 29.9829 13.3632C30.4138 13.7916 30.6558 14.3728 30.6558 14.9787C30.6558 16.2353 29.622 17.2634 28.3586 17.2634C27.141 17.2177 25.9924 16.7608 25.0735 15.984C23.9709 16.6922 22.7074 17.1263 21.398 17.2634C20.0885 17.3777 19.0089 16.4638 18.9399 15.2072C18.8983 14.9088 18.9182 14.6052 18.9986 14.3148C19.0789 14.0243 19.2179 13.7532 19.4071 13.518C19.5963 13.2828 19.8317 13.0885 20.0989 12.9468C20.3662 12.8051 20.6597 12.7191 20.9615 12.694C21.3291 12.6483 23.1209 12.3741 23.1209 10.9348C23.1209 9.42686 23.6952 7.98749 24.683 6.84514C22.5696 6.27396 20.2953 7.02791 17.9981 9.79242C13.7712 9.12985 12.0483 9.70103 10.7848 14.1562C8.60241 15.23 7.4538 15.984 6.94841 18.2687C9.42942 17.7661 11.9793 17.9717 14.3455 18.8399C15.4941 19.274 16.1373 20.5534 15.7008 21.7872C15.2644 22.9752 13.932 23.5692 12.7374 23.1351C11.0604 22.404 9.17672 22.3583 7.4538 22.9981C6.71869 23.6149 6.71869 24.8944 6.71869 25.8996C6.71869 27.5903 7.56866 29.1668 9.01591 30.0807C10.2334 30.6975 11.5888 31.0174 12.9442 30.9945C12.5996 30.4005 12.301 29.7836 12.0483 29.1439C11.8674 28.5569 11.9225 27.9231 12.2019 27.3756C12.4814 26.8282 12.9634 26.4099 13.5466 26.2086C14.1298 26.0074 14.7687 26.0389 15.329 26.2966C15.8893 26.5543 16.3273 27.0181 16.5508 27.5903C17.4697 30.1949 19.8129 31.977 22.5696 32.274C25.7168 32.1141 28.5194 30.2634 29.8977 27.4075C30.4261 24.2546 32.976 23.9805 35.7786 23.9805ZM40.3731 41.0473L38.9488 38.0772L37.3177 38.4427L39.615 41.2986L40.3731 41.0473ZM29.691 21.3759C29.7109 20.7922 29.5054 20.2231 29.1166 19.7855C28.7278 19.3478 28.1853 19.0749 27.6005 19.0227C25.9694 18.9313 24.3844 19.4796 23.1668 20.5534C21.8574 21.8785 21.1682 23.7063 21.2372 25.5569C21.2372 26.1629 21.4792 26.744 21.91 27.1725C22.3408 27.6009 22.9251 27.8416 23.5344 27.8416C24.8438 27.8416 25.8316 26.8135 25.8316 25.5569C25.8316 24.9401 25.9924 24.3232 26.36 23.8205C26.6356 23.5921 26.9802 23.4778 27.3478 23.4778C28.6113 23.5464 29.691 22.6096 29.691 21.3759Z" fill="white"/>
</svg>
