<svg width="56" height="56" viewBox="0 0 56 56" fill="none" xmlns="http://www.w3.org/2000/svg">
<rect width="56" height="56" rx="28" fill="#106970" fill-opacity="0.101961"/>
<path d="M32.5 20C32.5 20 33.625 22.25 32.5 25M36 18C36 18 38.25 22.05 36 27M25.5 26C25.9596 26 26.4148 25.9095 26.8394 25.7336C27.264 25.5577 27.6499 25.2999 27.9749 24.9749C28.2999 24.6499 28.5577 24.264 28.7336 23.8394C28.9095 23.4148 29 22.9596 29 22.5C29 22.0404 28.9095 21.5852 28.7336 21.1606C28.5577 20.736 28.2999 20.3501 27.9749 20.0251C27.6499 19.7001 27.264 19.4423 26.8394 19.2664C26.4148 19.0905 25.9596 19 25.5 19C24.5717 19 23.6815 19.3687 23.0251 20.0251C22.3687 20.6815 22 21.5717 22 22.5C22 23.4283 22.3687 24.3185 23.0251 24.9749C23.6815 25.6313 24.5717 26 25.5 26ZM18 36.4V37H33V36.4C33 34.16 33 33.04 32.564 32.184C32.1805 31.4314 31.5686 30.8195 30.816 30.436C29.96 30 28.84 30 26.6 30H24.4C22.16 30 21.04 30 20.184 30.436C19.4314 30.8195 18.8195 31.4314 18.436 32.184C18 33.04 18 34.16 18 36.4Z" stroke="#34856C" stroke-width="2" stroke-linecap="round" stroke-linejoin="round"/>
</svg>
