<svg width="56" height="56" viewBox="0 0 56 56" fill="none" xmlns="http://www.w3.org/2000/svg">
<rect width="56" height="56" rx="28" fill="#106970" fill-opacity="0.101961"/>
<path d="M27.9999 30.3333C27.0277 30.3333 26.2013 29.993 25.5208 29.3124C24.8402 28.6319 24.4999 27.8055 24.4999 26.8333V19.8333C24.4999 18.861 24.8402 18.0346 25.5208 17.3541C26.2013 16.6735 27.0277 16.3333 27.9999 16.3333C28.9721 16.3333 29.7985 16.6735 30.4791 17.3541C31.1596 18.0346 31.4999 18.861 31.4999 19.8333V26.8333C31.4999 27.8055 31.1596 28.6319 30.4791 29.3124C29.7985 29.993 28.9721 30.3333 27.9999 30.3333ZM26.8333 38.4999V34.9124C24.811 34.6402 23.1388 33.736 21.8166 32.1999C20.4944 30.6638 19.8333 28.8749 19.8333 26.8333H22.1666C22.1666 28.4471 22.7355 29.823 23.8734 30.9609C25.0113 32.0988 26.3868 32.6674 27.9999 32.6666C29.613 32.6658 30.9889 32.0969 32.1276 30.9598C33.2663 29.8226 33.8348 28.4471 33.8333 26.8333H36.1666C36.1666 28.8749 35.5055 30.6638 34.1833 32.1999C32.861 33.736 31.1888 34.6402 29.1666 34.9124V38.4999H26.8333Z" fill="#34856C"/>
</svg>
