<svg width="56" height="56" viewBox="0 0 56 56" fill="none" xmlns="http://www.w3.org/2000/svg">
<rect width="56" height="56" rx="28" fill="#106970" fill-opacity="0.101961"/>
<path d="M28.5797 18C28.8404 18 29.092 18.0958 29.2868 18.269C29.4816 18.4422 29.6061 18.681 29.6366 18.9399L29.6441 19.0644V36.0949C29.6438 36.3662 29.5399 36.6272 29.3536 36.8244C29.1674 37.0217 28.9129 37.1404 28.642 37.1563C28.3712 37.1722 28.1045 37.0841 27.8965 36.91C27.6884 36.7358 27.5547 36.4889 27.5227 36.2195L27.5153 36.0949V19.0644C27.5153 18.7821 27.6274 18.5114 27.827 18.3118C28.0266 18.1121 28.2974 18 28.5797 18ZM24.322 21.1932C24.6043 21.1932 24.8751 21.3054 25.0747 21.505C25.2743 21.7046 25.3864 21.9753 25.3864 22.2576V32.9017C25.3864 33.184 25.2743 33.4547 25.0747 33.6543C24.8751 33.854 24.6043 33.9661 24.322 33.9661C24.0397 33.9661 23.769 33.854 23.5694 33.6543C23.3698 33.4547 23.2576 33.184 23.2576 32.9017V22.2576C23.2576 21.9753 23.3698 21.7046 23.5694 21.505C23.769 21.3054 24.0397 21.1932 24.322 21.1932ZM32.8373 21.1932C33.1196 21.1932 33.3903 21.3054 33.5899 21.505C33.7896 21.7046 33.9017 21.9753 33.9017 22.2576V32.9017C33.9017 33.184 33.7896 33.4547 33.5899 33.6543C33.3903 33.854 33.1196 33.9661 32.8373 33.9661C32.555 33.9661 32.2843 33.854 32.0846 33.6543C31.885 33.4547 31.7729 33.184 31.7729 32.9017V22.2576C31.7729 21.9753 31.885 21.7046 32.0846 21.505C32.2843 21.3054 32.555 21.1932 32.8373 21.1932ZM20.0644 24.3864C20.3467 24.3864 20.6174 24.4986 20.8171 24.6982C21.0167 24.8978 21.1288 25.1686 21.1288 25.4508V29.7085C21.1288 29.9908 21.0167 30.2615 20.8171 30.4611C20.6174 30.6607 20.3467 30.7729 20.0644 30.7729C19.7821 30.7729 19.5114 30.6607 19.3118 30.4611C19.1121 30.2615 19 29.9908 19 29.7085V25.4508C19 25.1686 19.1121 24.8978 19.3118 24.6982C19.5114 24.4986 19.7821 24.3864 20.0644 24.3864ZM37.0949 24.3864C37.3556 24.3865 37.6073 24.4822 37.8021 24.6554C37.9969 24.8287 38.1214 25.0674 38.1519 25.3263L38.1593 25.4508V29.7085C38.159 29.9798 38.0551 30.2407 37.8689 30.438C37.6827 30.6353 37.4281 30.754 37.1573 30.7699C36.8865 30.7858 36.6198 30.6977 36.4117 30.5235C36.2037 30.3494 36.07 30.1024 36.038 29.833L36.0305 29.7085V25.4508C36.0305 25.1686 36.1427 24.8978 36.3423 24.6982C36.5419 24.4986 36.8126 24.3864 37.0949 24.3864Z" fill="#34856C"/>
</svg>
