<svg width="56" height="56" viewBox="0 0 56 56" fill="none" xmlns="http://www.w3.org/2000/svg">
<rect width="56" height="56" rx="28" fill="#106970" fill-opacity="0.101961"/>
<path d="M27.5 17C26.5017 17 25.6312 17.9617 25.6312 19.2333C25.6312 20.5048 26.5017 21.4665 27.5 21.4665C28.4983 21.4665 29.3687 20.5048 29.3687 19.2333C29.3687 17.9617 28.4983 17 27.5 17ZM20.5165 18.0422L19.7024 18.4459C20.4172 19.4983 21.246 20.6798 22.0868 21.722C23.0311 22.8925 24.001 23.8625 24.6262 24.1725L24.8646 24.2907V26.1666C26.1646 26.338 27.0935 26.4033 28.1169 26.3609C28.0853 26.3376 28.0539 26.3144 28.0235 26.2906C27.788 26.1062 27.5836 25.9007 27.4245 25.6797C27.1433 25.6518 26.9177 25.4719 26.7828 25.2687C26.6361 25.0478 26.5639 24.7821 26.5639 24.496C26.5639 24.21 26.6361 23.9443 26.7828 23.7232C26.9296 23.5023 27.1836 23.3081 27.5 23.3081C27.8164 23.3081 28.0704 23.5022 28.2172 23.7232C28.364 23.9442 28.4361 24.21 28.4361 24.496C28.4361 24.7821 28.3639 25.0478 28.2172 25.2688C28.2143 25.2732 28.2109 25.2776 28.208 25.2819C28.3 25.394 28.4157 25.508 28.5579 25.6193C28.859 25.8551 29.2633 26.0688 29.7438 26.2209C29.8708 26.2055 30.001 26.189 30.1354 26.1714V24.2907L30.3738 24.1725C30.999 23.8625 31.9689 22.8924 32.9133 21.722C33.754 20.6797 34.5828 19.4982 35.2976 18.4459L34.4835 18.0422C32.2469 20.2512 29.9817 22.3218 27.5 22.3218C25.0183 22.3218 22.753 20.2512 20.5165 18.0422ZM21.9106 26.5918L22.4929 29.479C27.3352 29.9239 27.6648 29.9239 32.5071 29.479L33.0891 26.5932C27.8145 27.4223 27.1849 27.4087 21.9107 26.5918L21.9106 26.5918ZM23.7911 30.4565L24.4307 35.5313H30.5693L31.2089 30.4565C27.9621 30.7432 27.0379 30.7432 23.7911 30.4565ZM21.7979 36.3866V37.3369H33.2021V36.3866H21.7979ZM16 38.1447V39H39V38.1447H16Z" fill="#34856C"/>
</svg>
