<svg width="56" height="56" viewBox="0 0 56 56" fill="none" xmlns="http://www.w3.org/2000/svg">
<rect width="56" height="56" rx="28" fill="#106970" fill-opacity="0.101961"/>
<path d="M27.5 38V21.2C27.5 19.2197 27.5 18.2306 26.8847 17.6153C26.2694 17 25.2803 17 23.3 17H21.2C19.2197 17 18.2306 17 17.6153 17.6153C17 18.2306 17 19.2197 17 21.2V33.8C17 35.7803 17 36.7694 17.6153 37.3847C18.2306 38 19.2197 38 21.2 38H27.5ZM27.5 38H33.8C35.7803 38 36.7694 38 37.3847 37.3847C38 36.7694 38 35.7803 38 33.8V27.5C38 25.5197 38 24.5306 37.3847 23.9153C36.7694 23.3 35.7803 23.3 33.8 23.3H27.5M34.325 31.7H31.175M34.325 27.5H31.175M23.825 29.6H20.675M23.825 25.4H20.675M23.825 21.2H20.675" stroke="#106970" stroke-width="1.5" stroke-linecap="round" stroke-linejoin="round"/>
</svg>
