<svg width="56" height="56" viewBox="0 0 56 56" fill="none" xmlns="http://www.w3.org/2000/svg">
<rect width="56" height="56" rx="28" fill="#106970" fill-opacity="0.101961"/>
<path d="M38.395 20.5634L27.7797 17.0451C27.5981 16.985 27.4017 16.985 27.2201 17.0451L16.6049 20.5634C16.4287 20.6218 16.2755 20.7338 16.167 20.8836C16.0584 21.0334 16 21.2133 16 21.3979V30.1937C16 30.427 16.0932 30.6507 16.2591 30.8157C16.425 30.9806 16.65 31.0733 16.8846 31.0733C17.1192 31.0733 17.3442 30.9806 17.5101 30.8157C17.676 30.6507 17.7692 30.427 17.7692 30.1937V22.6184L21.4835 23.8487C20.4966 25.4339 20.1828 27.3437 20.6109 29.1588C21.0391 30.9738 22.1741 32.5458 23.7669 33.5295C21.7765 34.3057 20.0559 35.7097 18.7976 37.6294C18.7321 37.7261 18.6867 37.8348 18.6638 37.9491C18.641 38.0635 18.6413 38.1812 18.6646 38.2954C18.6879 38.4097 18.7338 38.5181 18.7997 38.6146C18.8656 38.711 18.9501 38.7935 19.0483 38.8571C19.1464 38.9208 19.2564 38.9645 19.3717 38.9855C19.487 39.0066 19.6054 39.0046 19.7199 38.9798C19.8344 38.955 19.9429 38.9078 20.0389 38.8409C20.1349 38.7741 20.2167 38.6889 20.2793 38.5904C21.9457 36.0484 24.5774 34.5916 27.4999 34.5916C30.4224 34.5916 33.0541 36.0484 34.7205 38.5904C34.8503 38.7821 35.0507 38.9154 35.2785 38.9613C35.5062 39.0073 35.7431 38.9623 35.9377 38.8361C36.1324 38.7098 36.2693 38.5125 36.3188 38.2867C36.3683 38.0609 36.3264 37.8248 36.2022 37.6294C34.9439 35.7097 33.2167 34.3057 31.2329 33.5295C32.8242 32.5458 33.9581 30.9749 34.3862 29.1612C34.8142 27.3474 34.5014 25.4389 33.5163 23.8542L38.395 22.2379C38.5711 22.1796 38.7244 22.0676 38.833 21.9178C38.9416 21.768 39 21.5881 39 21.4034C39 21.2188 38.9416 21.0388 38.833 20.8891C38.7244 20.7393 38.5711 20.6273 38.395 20.5689V20.5634ZM32.8075 27.555C32.8078 28.3893 32.6091 29.2118 32.2277 29.955C31.8463 30.6982 31.2932 31.3409 30.6136 31.8304C29.9341 32.3198 29.1475 32.6421 28.3184 32.7708C27.4894 32.8995 26.6414 32.8308 25.8442 32.5706C25.047 32.3103 24.3231 31.8658 23.7321 31.2735C23.1411 30.6812 22.6998 29.9581 22.4443 29.1633C22.1888 28.3686 22.1264 27.525 22.2623 26.7017C22.3983 25.8783 22.7286 25.0988 23.2261 24.427L27.2201 25.7463C27.4017 25.8065 27.5981 25.8065 27.7797 25.7463L31.7737 24.427C32.4457 25.333 32.808 26.4292 32.8075 27.555Z" fill="#34856C"/>
</svg>
